<svg xmlns="http://www.w3.org/2000/svg" version="1.0" width="300.000000pt" height="300.000000pt" viewBox="-3 -3 306 306" preserveAspectRatio="xMidYMid meet" transform="matrix(1, 0, 0, 1, 0, 0)"><g id="deeditor_bgCarrier" stroke-width="0">
    <rect id="dee_c_e" x="-3" y="-3" width="306" height="306" rx="0" fill="#ffffff" strokewidth="0"/>
  </g>
<metadata fill="#000000">
Created by potrace 1.10, written by Peter Selinger 2001-2011
</metadata>
<g transform="translate(0.000000,300.000000) scale(0.100000,-0.100000)" fill="#000000" stroke="none">
<path d="M1250 1959 l0 -112 48 7 c42 5 122 -3 178 -20 21 -6 21 -5 7 48 -8 30 -13 82 -11 121 l4 67 -113 0 -113 0 0 -111z m173 64 c3 -5 7 -35 8 -68 l4 -60 -60 0 c-33 0 -66 4 -72 9 -13 9 -18 82 -7 110 5 12 21 16 64 16 33 0 61 -3 63 -7z" fill="#000000"/>
<path d="M1525 1988 c0 -46 -3 -99 -8 -119 l-7 -36 62 14 c38 8 86 11 121 7 l57 -6 0 111 0 111 -112 0 -113 0 0 -82z m180 -28 l0 -65 -72 -3 c-83 -3 -80 -7 -67 92 l7 47 66 -3 66 -3 0 -65z" fill="#000000"/>
<path d="M1455 1808 c-16 -5 -69 -10 -117 -10 l-88 0 0 -109 0 -109 113 0 113 0 -4 61 c-3 34 1 86 8 116 6 30 10 56 8 57 -1 2 -16 -1 -33 -6z m-15 -87 c0 -21 -3 -53 -6 -70 l-7 -32 -66 3 -66 3 -3 54 c-5 79 -3 81 78 81 l70 0 0 -39z" fill="#000000"/>
<path d="M1511 1799 c8 -15 13 -60 14 -121 l0 -98 113 0 112 0 0 111 0 112 -47 -6 c-44 -5 -131 4 -182 19 -22 7 -23 6 -10 -17z m190 -60 c11 -18 11 -90 0 -107 -5 -9 -26 -12 -67 -10 l-59 3 -6 60 c-3 33 -4 64 -1 68 7 14 123 1 133 -14z" fill="#000000"/>
<path d="M2285 1452 c-11 -1 -31 -5 -45 -9 l-25 -6 25 -6 c21 -6 25 -14 28 -49 3 -39 -9 -55 -23 -32 -12 20 -57 10 -86 -19 -40 -41 -40 -91 0 -132 33 -32 65 -37 99 -13 20 14 22 14 22 0 0 -11 10 -16 30 -16 31 0 40 14 15 24 -11 4 -15 32 -17 133 -3 122 -4 128 -23 125z m-25 -148 c15 -40 12 -72 -10 -94 -24 -24 -34 -25 -54 -4 -19 18 -22 94 -4 112 21 21 58 14 68 -14z" fill="#000000"/>
<path d="M1566 1441 c-3 -5 3 -11 14 -14 18 -5 20 -14 20 -116 0 -90 -3 -113 -15 -117 -8 -4 -15 -9 -15 -13 0 -8 98 -7 107 2 3 4 -1 7 -10 7 -24 0 -29 34 -25 154 l3 106 -37 0 c-20 0 -39 -4 -42 -9z" fill="#000000"/>
<path d="M665 1430 c-3 -4 4 -10 15 -13 18 -5 20 -14 20 -112 0 -98 -2 -107 -20 -112 -38 -10 -19 -18 45 -19 64 0 85 8 45 19 -17 4 -20 14 -20 56 l0 51 60 0 60 0 0 -51 c0 -42 -3 -52 -20 -56 -40 -11 -19 -19 45 -19 64 1 83 9 45 19 -18 5 -20 14 -20 112 0 98 2 107 20 112 36 9 12 20 -45 20 -57 0 -81 -11 -45 -20 16 -4 20 -14 20 -51 l0 -46 -60 0 -60 0 0 45 c0 31 5 47 15 51 8 4 15 10 15 14 0 9 -109 9 -115 0z" fill="#000000"/>
<path d="M975 1430 c-3 -4 4 -10 15 -13 18 -5 20 -14 20 -112 0 -98 -2 -107 -20 -112 -39 -10 -19 -18 50 -19 39 -1 70 3 70 7 0 5 -9 9 -20 9 -22 0 -26 6 -34 63 -7 52 11 48 61 -17 36 -45 49 -54 84 -60 41 -7 69 2 39 12 -8 3 -37 27 -64 54 l-50 49 32 19 c26 16 32 26 32 55 0 51 -32 68 -131 71 -44 1 -81 -2 -84 -6z m157 -34 c12 -17 9 -53 -5 -64 -15 -13 -61 -20 -64 -9 -2 4 -3 28 -3 53 l0 46 33 -7 c17 -4 35 -13 39 -19z" fill="#000000"/>
<path d="M1381 1423 c-51 -25 -73 -67 -68 -130 4 -59 24 -88 74 -109 41 -18 81 -18 115 0 25 13 29 13 37 -1 6 -12 10 -4 12 31 5 54 -6 70 -21 32 -11 -31 -39 -46 -84 -46 -50 0 -76 36 -76 106 0 66 30 107 78 107 33 0 72 -27 72 -50 0 -32 18 -9 23 29 6 46 1 61 -13 38 -7 -11 -13 -12 -35 -2 -36 16 -74 15 -114 -5z" fill="#000000"/>
<path d="M1750 1353 c-61 -22 -82 -109 -37 -151 63 -60 167 -20 167 63 0 64 -68 110 -130 88z m64 -35 c42 -60 -6 -156 -55 -112 -37 33 -16 134 27 134 7 0 20 -10 28 -22z" fill="#000000"/>
<path d="M1890 1351 c0 -5 7 -11 15 -15 11 -4 15 -21 15 -64 0 -48 4 -62 23 -80 27 -26 54 -28 85 -6 20 14 22 14 22 0 0 -12 10 -16 35 -16 36 0 47 13 20 24 -12 4 -15 23 -15 83 l0 78 -40 2 c-40 1 -53 -10 -25 -21 11 -4 15 -20 15 -55 0 -65 -7 -81 -36 -81 -31 0 -47 38 -42 104 l3 48 -37 4 c-21 1 -38 -1 -38 -5z" fill="#000000"/>
<path d="M610 1046 c0 -1 5 -17 11 -35 11 -32 29 -42 29 -16 0 8 -4 15 -10 15 -5 0 -10 9 -10 20 0 11 -4 20 -10 20 -5 0 -10 -2 -10 -4z" fill="#000000"/>
<path d="M650 1030 c0 -11 5 -20 10 -20 6 0 10 -7 10 -15 0 -8 5 -15 10 -15 6 0 10 1 10 3 0 1 4 17 9 35 6 20 6 32 0 32 -5 0 -9 -9 -9 -20 0 -11 -4 -20 -10 -20 -5 0 -10 9 -10 20 0 11 -4 20 -10 20 -5 0 -10 -9 -10 -20z" fill="#000000"/>
<path d="M732 1015 c0 -22 2 -32 5 -22 5 21 33 23 33 2 0 -8 4 -15 9 -15 12 0 11 59 -1 66 -4 3 -8 -2 -8 -10 0 -22 -27 -20 -33 2 -3 9 -5 -1 -5 -23z" fill="#000000"/>
<path d="M814 1036 c-11 -29 1 -61 24 -64 12 -2 22 1 22 7 0 6 -7 11 -15 11 -21 0 -19 18 3 23 16 4 16 5 0 6 -10 0 -18 5 -18 10 0 5 8 12 18 14 12 4 11 5 -6 6 -12 0 -25 -5 -28 -13z" fill="#000000"/>
<path d="M890 1013 c0 -30 3 -35 11 -23 8 11 12 12 16 3 9 -23 18 -13 18 20 0 26 -4 33 -22 35 -20 3 -23 -1 -23 -35z" fill="#000000"/>
<path d="M962 1013 c2 -31 7 -39 26 -41 12 -2 22 1 22 7 0 6 -7 11 -15 11 -21 0 -19 18 3 23 16 4 16 5 0 6 -10 0 -18 5 -18 10 0 5 8 12 18 14 10 3 6 5 -11 6 -27 1 -28 -1 -25 -36z" fill="#000000"/>
<path d="M1080 1015 c0 -38 22 -57 43 -36 8 8 5 11 -13 11 -23 1 -24 1 -7 14 18 14 18 14 0 19 -15 3 -14 6 7 15 l25 11 -27 0 c-25 1 -28 -2 -28 -34z" fill="#000000"/>
<path d="M1160 1050 c-6 -31 -6 -70 0 -70 13 0 20 42 10 59 -5 9 -10 14 -10 11z" fill="#000000"/>
<path d="M1207 1036 c-7 -18 3 -56 14 -56 5 0 9 16 9 35 0 35 -13 47 -23 21z" fill="#000000"/>
<path d="M1258 1015 c-2 -19 -3 -35 -1 -35 2 0 14 10 28 22 19 16 22 24 14 35 -20 23 -37 14 -41 -22z" fill="#000000"/>
<path d="M1332 1014 c2 -27 8 -40 21 -42 9 -2 17 1 17 7 0 6 -7 11 -15 11 -11 0 -14 7 -9 24 3 13 1 27 -6 31 -8 5 -10 -4 -8 -31z" fill="#000000"/>
<path d="M1400 1035 c-26 -31 13 -82 44 -56 21 17 21 57 0 65 -23 9 -30 8 -44 -9z m46 -34 c-11 -18 -36 -13 -36 7 0 10 3 22 7 26 10 10 37 -20 29 -33z" fill="#000000"/>
<path d="M1485 1035 c4 -11 10 -28 12 -38 5 -15 8 -14 19 9 16 31 18 58 3 31 -10 -18 -11 -18 -26 0 -14 17 -14 17 -8 -2z" fill="#000000"/>
<path d="M1562 1013 c2 -27 8 -39 21 -41 9 -2 17 1 17 7 0 6 -7 11 -15 11 -21 0 -19 18 3 23 16 4 16 5 0 6 -10 0 -18 5 -18 10 0 5 8 12 18 14 12 3 11 5 -6 6 -21 1 -23 -3 -20 -36z" fill="#000000"/>
<path d="M1630 1015 c0 -38 22 -57 43 -36 8 8 7 11 -6 11 -20 0 -23 16 -4 23 10 4 10 6 0 6 -19 1 -16 19 5 24 10 3 6 5 -10 6 -26 1 -28 -2 -28 -34z" fill="#000000"/>
<path d="M1704 1039 c-4 -7 3 -20 17 -31 l24 -20 -24 6 c-22 4 -23 4 -9 -11 22 -22 38 -8 35 30 -3 33 -28 49 -43 26z" fill="#000000"/>
<path d="M1830 1035 c-15 -18 -10 -45 12 -59 14 -8 22 -7 35 7 17 18 17 18 -9 12 -23 -6 -28 -4 -28 12 0 27 10 35 27 22 10 -9 13 -8 13 5 0 20 -33 21 -50 1z" fill="#000000"/>
<path d="M1920 1035 c-26 -31 13 -82 44 -56 19 16 21 42 4 59 -16 16 -33 15 -48 -3z m46 -34 c-9 -14 -33 -14 -41 -1 -4 6 -1 18 6 26 11 13 14 13 27 0 8 -8 11 -19 8 -25z" fill="#000000"/>
<path d="M2050 1031 c0 -12 -4 -19 -10 -16 -14 9 -13 -8 2 -23 18 -18 23 -15 22 18 -1 35 -14 54 -14 21z" fill="#000000"/>
<path d="M2090 1015 c0 -19 5 -35 11 -35 7 0 9 9 6 21 -4 16 -3 18 9 8 18 -14 18 0 0 24 -20 25 -26 21 -26 -18z" fill="#000000"/>
<path d="M2182 1013 c2 -27 8 -39 21 -41 9 -2 17 1 17 7 0 6 -7 11 -15 11 -21 0 -19 18 3 23 16 4 16 5 0 6 -10 0 -18 6 -18 12 0 6 7 9 15 5 8 -3 15 -1 15 4 0 6 -9 10 -21 10 -17 0 -20 -5 -17 -37z" fill="#000000"/>
<path d="M2257 1044 c-24 -24 7 -82 38 -70 22 8 19 25 -4 19 -24 -6 -36 13 -21 33 10 11 16 12 28 2 13 -11 14 -10 10 2 -5 16 -39 25 -51 14z" fill="#000000"/>
<path d="M2338 1043 c6 -2 12 -18 12 -34 0 -16 5 -29 10 -29 6 0 10 13 10 29 0 16 6 32 13 34 6 3 -4 5 -23 5 -19 0 -29 -2 -22 -5z" fill="#000000"/>
</g>
</svg>